<svg xmlns="http://www.w3.org/2000/svg" width="1000" height="690" viewBox="0 0 1000 690" font-family="sans-serif">
<rect width="1000" height="690" fill="white"/>
<text x="500" y="18" text-anchor="middle" font-size="14" font-weight="bold">BFM-decomp — matched percentage over time (from the committed digests)</text>
<line x1="60" y1="360.0" x2="980" y2="360.0" stroke="#ddd"/><text x="54" y="364.0" text-anchor="end" font-size="11" fill="#555">0%</text>
<line x1="60" y1="277.5" x2="980" y2="277.5" stroke="#ddd"/><text x="54" y="281.5" text-anchor="end" font-size="11" fill="#555">25%</text>
<line x1="60" y1="195.0" x2="980" y2="195.0" stroke="#ddd"/><text x="54" y="199.0" text-anchor="end" font-size="11" fill="#555">50%</text>
<line x1="60" y1="112.5" x2="980" y2="112.5" stroke="#ddd"/><text x="54" y="116.5" text-anchor="end" font-size="11" fill="#555">75%</text>
<line x1="60" y1="30.0" x2="980" y2="30.0" stroke="#ddd"/><text x="54" y="34.0" text-anchor="end" font-size="11" fill="#555">100%</text>
<line x1="233.8" y1="30" x2="233.8" y2="360" stroke="#eee"/><text x="233.8" y="376" text-anchor="middle" font-size="11" fill="#555">Jul 2026</text>
<line x1="550.7" y1="30" x2="550.7" y2="360" stroke="#eee"/><text x="550.7" y="376" text-anchor="middle" font-size="11" fill="#555">Aug 2026</text>
<line x1="867.6" y1="30" x2="867.6" y2="360" stroke="#eee"/><text x="867.6" y="376" text-anchor="middle" font-size="11" fill="#555">Sep 2026</text>
<line x1="60.0" y1="360" x2="60.0" y2="352" stroke="#888"/>
<line x1="60.0" y1="360" x2="60.0" y2="352" stroke="#888"/>
<line x1="60.0" y1="360" x2="60.0" y2="352" stroke="#888"/>
<line x1="60.0" y1="360" x2="60.0" y2="352" stroke="#888"/>
<line x1="60.0" y1="360" x2="60.0" y2="352" stroke="#888"/>
<line x1="70.2" y1="360" x2="70.2" y2="352" stroke="#888"/>
<line x1="70.2" y1="360" x2="70.2" y2="352" stroke="#888"/>
<text x="70.2" y="390" text-anchor="middle" font-size="10" fill="#333">P7</text>
<line x1="70.2" y1="360" x2="70.2" y2="352" stroke="#888"/>
<line x1="70.2" y1="360" x2="70.2" y2="352" stroke="#888"/>
<line x1="80.4" y1="360" x2="80.4" y2="352" stroke="#888"/>
<line x1="80.4" y1="360" x2="80.4" y2="352" stroke="#888"/>
<line x1="80.4" y1="360" x2="80.4" y2="352" stroke="#888"/>
<line x1="100.9" y1="360" x2="100.9" y2="352" stroke="#888"/>
<text x="100.9" y="390" text-anchor="middle" font-size="10" fill="#333">P15</text>
<line x1="111.1" y1="360" x2="111.1" y2="352" stroke="#888"/>
<line x1="121.3" y1="360" x2="121.3" y2="352" stroke="#888"/>
<line x1="121.3" y1="360" x2="121.3" y2="352" stroke="#888"/>
<line x1="121.3" y1="360" x2="121.3" y2="352" stroke="#888"/>
<line x1="131.6" y1="360" x2="131.6" y2="352" stroke="#888"/>
<line x1="182.7" y1="360" x2="182.7" y2="352" stroke="#888"/>
<line x1="213.3" y1="360" x2="213.3" y2="352" stroke="#888"/>
<line x1="244.0" y1="360" x2="244.0" y2="352" stroke="#888"/>
<text x="244.0" y="390" text-anchor="middle" font-size="10" fill="#333">P23</text>
<line x1="305.3" y1="360" x2="305.3" y2="352" stroke="#888"/>
<line x1="336.0" y1="360" x2="336.0" y2="352" stroke="#888"/>
<line x1="376.9" y1="360" x2="376.9" y2="352" stroke="#888"/>
<text x="376.9" y="390" text-anchor="middle" font-size="10" fill="#333">P26</text>
<line x1="376.9" y1="360" x2="376.9" y2="352" stroke="#888"/>
<line x1="387.1" y1="360" x2="387.1" y2="352" stroke="#888"/>
<line x1="530.2" y1="360" x2="530.2" y2="352" stroke="#888"/>
<text x="530.2" y="390" text-anchor="middle" font-size="10" fill="#333">P29</text>
<line x1="683.6" y1="360" x2="683.6" y2="352" stroke="#888"/>
<text x="683.6" y="390" text-anchor="middle" font-size="10" fill="#333">P30</text>
<line x1="908.4" y1="360" x2="908.4" y2="352" stroke="#888"/>
<text x="908.4" y="390" text-anchor="middle" font-size="10" fill="#333">P31</text>
<line x1="918.7" y1="360" x2="918.7" y2="352" stroke="#888"/>
<text x="918.7" y="390" text-anchor="middle" font-size="10" fill="#333">P32</text>
<line x1="928.9" y1="360" x2="928.9" y2="352" stroke="#888"/>
<line x1="939.1" y1="360" x2="939.1" y2="352" stroke="#888"/>
<line x1="939.1" y1="360" x2="939.1" y2="352" stroke="#888"/>
<line x1="939.1" y1="360" x2="939.1" y2="352" stroke="#888"/>
<line x1="969.8" y1="360" x2="969.8" y2="352" stroke="#888"/>
<line x1="448.4" y1="30" x2="448.4" y2="360" stroke="#c33" stroke-dasharray="4,3"/><text x="452.4" y="44" font-size="11" fill="#c33">2026-07-22: main enters the denominators</text>
<polyline fill="none" stroke="#1f77b4" stroke-width="2" points="336.0,169.4 346.2,152.3 356.4,149.5 366.7,133.5 376.9,135.5 387.1,125.8 397.3,122.1 407.6,111.7 417.8,108.2 428.0,102.6 438.2,102.5 448.4,100.5 458.7,98.1 468.9,96.3 479.1,94.1 489.3,90.4 499.6,81.5 509.8,74.4 520.0,72.3 530.2,68.9 540.4,65.8 550.7,55.0 571.1,50.8 581.3,48.1 591.6,46.5 601.8,49.7 612.0,50.5 642.7,48.7 652.9,47.0 663.1,46.0 673.3,45.9 683.6,45.5 693.8,44.8 704.0,44.6 714.2,43.6 724.4,42.9 775.6,42.8 796.0,38.6 806.2,34.9 816.4,34.2 836.9,33.6 847.1,33.3 857.3,32.1 867.6,31.6 877.8,31.0 888.0,30.9 898.2,30.1 908.4,30.0 918.7,30.0 928.9,30.0 939.1,30.0 949.3,30.0 959.6,30.0 969.8,30.0 980.0,30.0"/><text x="70" y="352" font-size="12" fill="#1f77b4">instruction-weighted (all binaries)</text>
<polyline fill="none" stroke="#2ca02c" stroke-width="2" points="336.0,263.2 346.2,230.9 356.4,225.5 366.7,197.6 376.9,196.8 387.1,184.2 397.3,181.7 407.6,159.9 417.8,152.9 428.0,140.5 438.2,140.4 448.4,136.8 458.7,136.7 468.9,136.7 479.1,134.8 489.3,131.5 499.6,114.5 509.8,106.2 520.0,103.4 530.2,100.4 540.4,94.4 550.7,77.8 571.1,69.5 581.3,65.5 591.6,64.8 601.8,70.9 612.0,72.4 642.7,69.1 652.9,65.6 663.1,63.7 673.3,63.3 683.6,62.7 693.8,61.3 704.0,60.8 714.2,58.5 724.4,57.0 775.6,56.9 796.0,47.8 806.2,40.3 816.4,38.8 836.9,37.9 847.1,37.4 857.3,34.8 867.6,33.8 877.8,32.2 888.0,32.0 898.2,30.3 908.4,30.1 918.7,30.0 928.9,30.0 939.1,30.0 949.3,30.0 959.6,30.0 969.8,30.0 980.0,30.0"/><text x="70" y="338" font-size="12" fill="#2ca02c">distinct code (each body once)</text>
<polyline fill="none" stroke="#999" stroke-width="2" points="80.4,276.3 90.7,190.3 100.9,180.2 111.1,176.8 121.3,167.4 131.6,163.1 141.8,158.2 152.0,154.4 162.2,151.7 172.4,151.5 182.7,149.9 213.3,149.9 223.6,148.1 233.8,146.8 244.0,146.0 254.2,143.4 264.4,143.0 295.1,142.1 305.3,122.3 315.6,121.4 325.8,114.5 336.0,113.9 346.2,88.6 356.4,88.1 366.7,81.9 376.9,87.3 387.1,75.2 397.3,74.3 407.6,72.8 417.8,71.4 428.0,69.9 438.2,69.8 448.4,68.9 458.7,67.4 468.9,66.4 479.1,65.7 489.3,64.6 499.6,62.5 509.8,59.3 520.0,57.3 530.2,54.5 540.4,52.3 550.7,45.1 571.1,42.9 581.3,41.5 591.6,41.1 601.8,43.3 612.0,44.2 642.7,42.5 652.9,41.8 663.1,41.5 673.3,41.3 683.6,40.9 693.8,40.4 704.0,40.2 714.2,39.8 724.4,39.5 775.6,39.5 796.0,35.3 806.2,32.1 816.4,31.6 836.9,31.2 847.1,30.9 857.3,30.4 867.6,30.2 877.8,30.1 888.0,30.0 898.2,30.0 908.4,30.0 918.7,30.0 928.9,30.0 939.1,30.0 949.3,30.0 959.6,30.0 969.8,30.0 980.0,30.0"/><text x="70" y="324" font-size="12" fill="#999">function count</text>
<text x="500" y="446" text-anchor="middle" font-size="14" font-weight="bold">After 100 % — the Gen3 debts, as a share of their first measurement (levers: Phase 36 →; raw casts: the readability series)</text>
<line x1="60" y1="650.0" x2="980" y2="650.0" stroke="#ddd"/><text x="54" y="654.0" text-anchor="end" font-size="11" fill="#555">0%</text>
<line x1="60" y1="602.5" x2="980" y2="602.5" stroke="#ddd"/><text x="54" y="606.5" text-anchor="end" font-size="11" fill="#555">25%</text>
<line x1="60" y1="555.0" x2="980" y2="555.0" stroke="#ddd"/><text x="54" y="559.0" text-anchor="end" font-size="11" fill="#555">50%</text>
<line x1="60" y1="507.5" x2="980" y2="507.5" stroke="#ddd"/><text x="54" y="511.5" text-anchor="end" font-size="11" fill="#555">75%</text>
<line x1="60" y1="460.0" x2="980" y2="460.0" stroke="#ddd"/><text x="54" y="464.0" text-anchor="end" font-size="11" fill="#555">100%</text>
<line x1="673.3" y1="650" x2="673.3" y2="642" stroke="#888"/><text x="673.3" y="664" text-anchor="middle" font-size="10" fill="#333">P36</text>
<polyline fill="none" stroke="#d62728" stroke-width="2" points="60.0,460.0 366.7,621.2 673.3,624.9"/><text x="70" y="642" font-size="12" fill="#d62728">register pins + asm statements (the lever series): 30,358 → 4,010</text>
<polyline fill="none" stroke="#9467bd" stroke-width="2" points="366.7,460.0 673.3,419.2 980.0,419.2"/><text x="70" y="628" font-size="12" fill="#9467bd">raw pointer-cast dereferences (the readability series; the 2026-09-12 step = the four-form count): 414,148 → 503,016</text>
<text x="669.3" y="618.9" text-anchor="end" font-size="10" fill="#d62728">4,010</text>
<text x="980" y="686" text-anchor="end" font-size="10" fill="#777">generated by tools/timeline.py — keyed by date</text>
</svg>
